<svg xmlns="http://www.w3.org/2000/svg" viewBox="0 0 30 20" role="img" aria-label="中华人民共和国国旗">
  <rect width="30" height="20" fill="#de2910"/>
  <path d="M5.000,2.000L5.674,4.073L7.853,4.073L6.090,5.354L6.763,7.427L5.000,6.146L3.237,7.427L3.910,5.354L2.147,4.073L4.326,4.073Z M9.143,2.514L9.620,1.966L9.246,1.343L9.914,1.628L10.391,1.080L10.328,1.803L10.996,2.088L10.288,2.251L10.224,2.975L9.851,2.352Z M11.010,4.141L11.662,3.821L11.560,3.102L12.065,3.624L12.718,3.304L12.378,3.946L12.884,4.467L12.168,4.343L11.829,4.985L11.726,4.266Z M11.038,6.725L11.765,6.699L11.964,6.001L12.213,6.683L12.939,6.657L12.367,7.105L12.616,7.787L12.014,7.382L11.442,7.830L11.641,7.131Z M9.219,8.375L9.899,8.632L10.353,8.064L10.319,8.790L10.999,9.046L10.298,9.239L10.265,9.964L9.865,9.357L9.165,9.550L9.618,8.982Z" fill="#ffde00"/>
</svg>